<?xml version="1.0" encoding="UTF-8"?>
<svg id="Isotipo" xmlns="http://www.w3.org/2000/svg" xmlns:xlink="http://www.w3.org/1999/xlink" viewBox="0 0 553.1 512.68">
  <defs>
    <style>
      .cls-1 {
        filter: url(#drop-shadow-4);
      }

      .cls-2 {
        filter: url(#drop-shadow-3);
      }
    </style>
    <filter id="drop-shadow-3" filterUnits="userSpaceOnUse">
      <feOffset dx="-22" dy="-2"/>
      <feGaussianBlur result="blur" stdDeviation="5"/>
      <feFlood flood-color="#000" flood-opacity=".75"/>
      <feComposite in2="blur" operator="in"/>
      <feComposite in="SourceGraphic"/>
    </filter>
    <filter id="drop-shadow-4" filterUnits="userSpaceOnUse">
      <feOffset dx="-22" dy="-2"/>
      <feGaussianBlur result="blur-2" stdDeviation="5"/>
      <feFlood flood-color="#000" flood-opacity=".75"/>
      <feComposite in2="blur-2" operator="in"/>
      <feComposite in="SourceGraphic"/>
    </filter>
  </defs>
  <g id="group">
    <g>
      <path class="cls-2" d="M300.11,143.31l-10.23,24.17c-15.81,37.31-31.73,74.56-48.03,111.65l-24.41,55.56c-8.11,18.5-16.08,37.24-24.92,55.7-8.73,18.55-18.74,36.75-30.14,53.97-5.73,8.6-11.77,17.02-18.27,25.08-3.27,4-6.62,7.97-10.09,11.8-1.76,1.91-3.46,3.86-5.28,5.71l-2.69,2.8-2.87,2.84c-7.88,7.43-17.29,13.55-27.71,16.86-10.4,3.36-21.42,3.97-31.88,2.45-10.49-1.52-20.38-5.21-29.52-9.92-9.16-4.76-17.54-10.71-25.21-17.34,4.32,2.68,8.58,5.39,13.07,7.71,4.45,2.35,9.02,4.43,13.66,6.26,9.28,3.65,19.01,6.02,28.69,6.54,9.67,.56,19.31-.89,27.95-4.54,8.64-3.67,16.31-9.26,22.7-16.21l2.36-2.65,2.39-2.86c1.59-1.89,3.11-3.85,4.65-5.78,3.06-3.91,5.99-7.9,8.86-11.94,5.71-8.1,11.12-16.44,16.14-24.98,10.14-17.11,18.89-34.9,26.84-53.27,7.99-18.38,15.55-37.09,23.26-55.88,7.86-18.81,15.81-37.36,23.85-55.97,12.61-29.34,25.41-58.57,38.35-87.74-7.75,3.59-15.51,7.19-23.28,10.73-15.62,7.21-31.28,14.32-46.96,21.42l-23.54,10.59c-7.84,3.52-15.7,7.02-23.6,10.47-9.73,4.24-19.42,8.52-29.13,12.79-3.21,1.41-6.43,2.8-9.64,4.2,10.75,6.14,21.52,12.22,32.19,18.48,13.5,7.84,26.95,15.74,40.32,23.82-14.35-6.19-28.58-12.6-42.78-19.05-14.24-6.4-28.32-13.07-42.5-19.59l-8.51-3.92,8.64-4.61c15.2-8.08,30.49-15.96,45.74-23.95,7.62-4,15.27-7.95,22.93-11.86l22.98-11.75c15.33-7.8,30.69-15.57,46.08-23.24,15.36-7.75,30.8-15.33,46.22-22.98l23.32-11.57Z"/>
      <path class="cls-1" d="M553.1,27.95l-6.47-4-6.58-3.72-6.76-3.32-6.92-2.95c-9.26-3.67-19-6.06-28.69-6.54-9.69-.56-19.31,.93-27.97,4.58-8.63,3.65-16.31,9.28-22.7,16.21-.8,.88-1.61,1.69-2.41,2.6l-2.39,2.85c-1.6,1.89-3.12,3.86-4.67,5.79-3.06,3.89-6.01,7.87-8.86,11.93-5.69,8.12-11.12,16.42-16.16,24.99-5.03,8.56-9.81,17.27-14.26,26.15-4.46,8.91-8.56,17.9-12.58,27.11-7.99,18.41-15.51,37.11-23.22,55.9-3.86,9.4-7.9,18.76-11.85,28.06l-11.95,27.93c-12.49,29.1-25.17,58.11-37.96,87.06l22.72-10.95,46.97-22.3c15.66-7.42,31.38-14.7,47.11-21.98l34.29-15.66,6.15-2.82-12.91-11.81c-6.25-5.72-12.55-11.38-18.74-17.18l-18.63-17.31c-6.13-5.84-12.34-11.62-18.44-17.51,6.88,4.96,13.64,10.06,20.48,15.1l20.29,15.31c6.79,5.08,13.46,10.29,20.19,15.44l20.16,15.47,6.05,4.66-7.05,3.81-45.76,24.73c-15.27,8.15-30.58,16.31-45.93,24.35l-46.07,24.04-46.24,23.76-23.91,12.29,10.58-24.95c15.83-37.29,31.82-74.5,48.1-111.59l24.46-55.55c8.12-18.49,16.13-37.21,24.97-55.66,8.73-18.55,18.73-36.75,30.13-53.97,5.73-8.6,11.73-17.03,18.26-25.05,3.26-4.03,6.6-7.97,10.06-11.83,1.76-1.91,3.47-3.85,5.27-5.71l2.68-2.82c.95-.92,1.97-1.85,2.95-2.78,7.82-7.43,17.24-13.53,27.64-16.81,10.36-3.37,21.38-4.04,31.82-2.54,10.49,1.51,20.39,5.18,29.52,9.88,9.16,4.75,17.54,10.7,25.23,17.31Z"/>
    </g>
  </g>
</svg>